<?xml version="1.0" standalone="no"?>
<!DOCTYPE svg PUBLIC "-//W3C//DTD SVG 20010904//EN"
 "http://www.w3.org/TR/2001/REC-SVG-20010904/DTD/svg10.dtd">
<svg version="1.0" xmlns="http://www.w3.org/2000/svg"
 width="500.000000pt" height="500.000000pt" viewBox="0 0 500.000000 500.000000"
 preserveAspectRatio="xMidYMid meet">
<metadata>
Created by potrace 1.14, written by Peter Selinger 2001-2017
</metadata>
<g transform="translate(0.000000,500.000000) scale(0.100000,-0.100000)"
fill="#000000" stroke="none">
<path d="M484 2992 c-19 -3 -10 -34 143 -496 l164 -493 97 1 c69 1 97 5 98 14
1 6 2 13 4 15 1 1 3 9 5 17 1 8 17 58 34 110 17 52 57 174 88 270 31 96 58
177 60 179 5 6 14 -5 17 -21 1 -7 40 -126 85 -265 46 -139 82 -255 82 -258 -1
-3 5 -18 13 -34 15 -28 16 -28 105 -28 l91 0 105 316 c57 174 130 390 160 480
30 90 56 171 57 179 3 13 -13 16 -101 16 -106 1 -131 -7 -131 -39 0 -8 -5 -26
-11 -42 -6 -15 -47 -134 -90 -263 -44 -129 -82 -242 -85 -250 -3 -8 -19 28
-36 80 -17 52 -33 102 -36 110 -3 8 -6 17 -6 20 -1 3 -5 11 -9 18 -5 6 -6 12
-3 12 3 0 -2 16 -10 35 -8 19 -11 35 -8 35 4 0 2 6 -3 13 -8 9 -45 115 -48
137 -3 20 -39 117 -46 125 -5 5 -48 10 -95 10 l-85 0 -85 -265 c-47 -146 -92
-283 -99 -305 -9 -26 -15 -35 -19 -25 -3 8 -50 146 -103 305 l-98 290 -90 0
c-49 0 -99 -1 -111 -3z"/>
<path d="M2024 2989 c-2 -4 100 -329 133 -419 3 -8 47 -139 98 -290 l91 -275
93 0 c88 -1 103 4 107 31 6 39 188 574 195 574 5 0 9 -6 9 -13 0 -7 21 -76 46
-152 25 -77 48 -146 49 -155 2 -8 22 -69 45 -135 22 -66 42 -127 44 -135 2
-12 21 -15 89 -16 48 0 91 2 96 5 7 5 105 275 116 322 4 19 63 197 72 219 3 8
7 20 8 25 1 6 33 99 70 208 37 109 65 201 61 204 -5 5 -216 12 -216 7 0 -4
-203 -600 -205 -602 -2 -3 -42 117 -156 471 -22 70 -44 127 -47 128 -29 4
-165 4 -171 -1 -5 -3 -32 -77 -61 -165 -28 -88 -58 -177 -66 -197 -7 -21 -11
-38 -8 -38 4 0 2 -6 -3 -12 -5 -7 -21 -50 -34 -95 -13 -46 -27 -83 -30 -83 -6
0 -100 272 -183 525 -11 33 -21 62 -23 65 -6 6 -214 6 -219 -1z"/>
<path d="M3925 2987 c-193 -21 -378 -196 -415 -392 -13 -70 -6 -210 14 -276
76 -256 354 -400 621 -322 66 19 63 17 121 67 23 20 43 36 46 36 6 0 2 -92 -7
-136 -14 -78 -89 -165 -155 -180 -11 -2 -30 -7 -42 -10 -13 -3 -57 -7 -98 -8
-103 -3 -213 27 -308 84 -29 18 -35 18 -48 6 -8 -8 -14 -17 -14 -21 0 -3 -20
-35 -44 -72 l-45 -66 22 -17 c42 -32 152 -80 232 -101 102 -26 275 -33 365
-13 136 29 267 122 317 224 53 105 56 147 58 683 l3 497 -32 1 c-56 0 -181 1
-193 0 -9 -1 -13 -21 -13 -63 -1 -58 -2 -61 -15 -43 -38 51 -85 84 -160 110
-40 14 -141 20 -210 12z m230 -237 c137 -66 200 -213 157 -365 -32 -113 -148
-197 -277 -200 -169 -3 -296 121 -297 291 -1 140 76 248 205 290 54 18 158 10
212 -16z"/>
</g>
</svg>
